M48
INCH,TZ
T1C0.016
T2C0.020
T3C0.037
T4C0.039
%
G90
G05
T1
X45107Y-38059
X45500Y-39550
X45550Y-44400
X45600Y-41250
X46000Y-47550
X46100Y-50400
X46250Y-43450
X46300Y-42900
X46500Y-49450
X48050Y-43200
X48750Y-44200
X48800Y-42100
X48850Y-40700
X48850Y-43650
X48850Y-50500
X49050Y-45250
X49150Y-44750
X49250Y-41200
X49300Y-42000
X49800Y-44500
X51250Y-49500
X51350Y-41250
X51450Y-44150
X51450Y-48400
X51481Y-43504
X51500Y-41650
X51600Y-40800
X54050Y-46200
X54200Y-41650
X54500Y-42800
X54550Y-44600
X54650Y-43800
X54950Y-50000
X55050Y-41950
X55250Y-43200
X55300Y-43900
X55550Y-49400
X55850Y-41300
X56150Y-46300
X56300Y-41700
X56400Y-49350
X56850Y-49400
X56950Y-47450
X57350Y-43700
X57600Y-44100
X57719Y-44779
X58050Y-42800
X58150Y-43250
X58150Y-48600
X58850Y-48700
X59400Y-41800
X59450Y-48700
X59500Y-43100
X59500Y-43700
X59650Y-46300
X59800Y-40850
X59900Y-45800
X59950Y-43100
X60265Y-41394
X60400Y-40600
X60500Y-44650
X60800Y-40850
X60900Y-49150
X61100Y-41900
X61200Y-42500
X61300Y-49600
X61700Y-44050
X61750Y-45300
X61750Y-49500
X61850Y-42100
X61850Y-44800
X62216Y-49436
X62350Y-39550
X64350Y-49600
X64550Y-48550
X65200Y-41550
X65400Y-37700
X66100Y-48850
X66150Y-41150
X66650Y-41150
X69600Y-42050
X72850Y-37600
T2
X54250Y-49502
X54250Y-50250
T3
X67500Y-44250
X67500Y-45250
X67500Y-46250
X67500Y-47250
X67500Y-48250
X68500Y-43250
X68500Y-44250
X68500Y-45250
X68500Y-46250
X68500Y-47250
X68500Y-48250
X68500Y-49250
X69500Y-43250
X69500Y-44250
X69500Y-48250
X69500Y-49250
X70500Y-43250
X70500Y-44250
X70500Y-48250
X70500Y-49250
X71500Y-43250
X71500Y-44250
X71500Y-45250
X71500Y-46250
X71500Y-47250
X71500Y-48250
X71500Y-49250
X72500Y-44250
X72500Y-44250
X72500Y-45250
X72500Y-46250
X72500Y-47250
X72500Y-48250
T4
X45000Y-37250
X46000Y-37250
X47000Y-37250
X48000Y-37250
X49000Y-37250
X50000Y-37250
X51000Y-37250
X52000Y-37250
X53000Y-37250
X54000Y-37250
X55000Y-37250
X55750Y-50250
X56000Y-37250
X56750Y-50250
X57000Y-37250
X57750Y-50250
X58000Y-37250
X58750Y-50250
X59000Y-37250
X59750Y-50250
X60000Y-37250
X60750Y-50250
X61000Y-37250
X61750Y-50250
X62000Y-37250
X62750Y-50250
X63000Y-37250
X64000Y-37250
X66150Y-36900
X67150Y-36900
T0
M30
